<?xml version="1.0" encoding="utf-8"?>
<!-- Generator: Adobe Illustrator 24.3.0, SVG Export Plug-In . SVG Version: 6.00 Build 0)  -->
<svg version="1.1" id="Layer_1" xmlns="http://www.w3.org/2000/svg" xmlns:xlink="http://www.w3.org/1999/xlink" x="0px" y="0px"
	 viewBox="0 0 50 50" style="enable-background:new 0 0 50 50;" xml:space="preserve">
<g>
	<g>
		<rect x="23.44" y="14.79" transform="matrix(0.7071 -0.7071 0.7071 0.7071 -10.0793 25.2535)" width="4" height="20"/>
	</g>
	<g>
		<rect x="15.44" y="22.79" transform="matrix(0.7071 -0.7071 0.7071 0.7071 -10.0793 25.2523)" width="20" height="4"/>
	</g>
</g>
<g>
	<path d="M25.44,44.79c-11.03,0-20-8.97-20-20s8.97-20,20-20s20,8.97,20,20S36.47,44.79,25.44,44.79z M25.44,8.79
		c-8.82,0-16,7.18-16,16s7.18,16,16,16s16-7.18,16-16S34.26,8.79,25.44,8.79z"/>
</g>
</svg>
