<?xml version="1.0" encoding="utf-8"?>
<!-- Generator: Adobe Illustrator 24.3.0, SVG Export Plug-In . SVG Version: 6.00 Build 0)  -->
<svg version="1.1" id="Layer_1" xmlns="http://www.w3.org/2000/svg" xmlns:xlink="http://www.w3.org/1999/xlink" x="0px" y="0px"
	 viewBox="0 0 50 50" style="enable-background:new 0 0 50 50;" xml:space="preserve">
<style type="text/css">
	.st0{fill-rule:evenodd;clip-rule:evenodd;}
</style>
<g>
	<g>
		<path class="st0" d="M42.2,16.61h-5.61V8.27c0-1.91-1.69-3.32-3.6-3.32H16.84c-1.91,0-3.6,1.4-3.6,3.32v8.34l-5.43,0
			c-1.58,0-2.91,1.44-2.91,3.02l0,18.66h8.34v6.67h23.34v-6.67h8.34V19.62C44.93,18.05,43.78,16.61,42.2,16.61L42.2,16.61z
			 M33.25,42.39H16.58v-4.11h16.68v5V42.39z M16.58,12.12V8.37c0-0.51,0.76-0.93,1.7-0.93h13.27c0.94,0,1.7,0.42,1.7,0.93v8.24
			H16.58V12.12L16.58,12.12z M14.91,30.78h20.01v1.67H14.91V30.78L14.91,30.78z M38.45,33.01c-0.84,0-1.52-0.68-1.52-1.52
			c0-0.84,0.68-1.52,1.52-1.52c0.84,0,1.52,0.68,1.52,1.52C39.97,32.33,39.29,33.01,38.45,33.01z"/>
	</g>
</g>
</svg>
