<?xml version="1.0" encoding="utf-8"?>
<!-- Generator: Adobe Illustrator 24.3.0, SVG Export Plug-In . SVG Version: 6.00 Build 0)  -->
<svg version="1.1" id="Layer_1" xmlns="http://www.w3.org/2000/svg" xmlns:xlink="http://www.w3.org/1999/xlink" x="0px" y="0px"
	 viewBox="0 0 50 50" style="enable-background:new 0 0 50 50;" xml:space="preserve">
<g>
	<path d="M24.92,4.95L7.91,9.81v16.3c0,4.8,2.33,9.32,6.23,12.11l8.31,5.93c0.74,0.53,1.6,0.79,2.47,0.79
		c0.87,0,1.73-0.26,2.47-0.79l8.31-5.93l0,0c3.9-2.79,6.23-7.32,6.23-12.11V9.81L24.92,4.95z M37.68,26.11
		c0,3.43-1.66,6.66-4.45,8.65l0,0l-8.31,5.93l-8.31-5.93c-2.79-1.99-4.45-5.23-4.45-8.65V13.02l12.76-3.65l12.76,3.65V26.11z"/>
	<g>
		<rect x="22.79" y="15.67" width="4.25" height="10.63"/>
		<rect x="22.79" y="28.43" width="4.25" height="4.25"/>
	</g>
</g>
</svg>
